<svg xmlns="http://www.w3.org/2000/svg" id="Lager_1" data-name="Lager 1" viewBox="0 0 500 623.3"><defs><style>.cls-1{fill:#323232}</style></defs><title>Rityta 1</title><path d="M133.94,533.22c-6.85,32.69-11.18,69.11,3.69,83.31,11.61,11.07,59.06,14.77,80.16-39-3.7-14.24-11.61-50.62-9-69.08C189.84,532.16,158.2,536.38,133.94,533.22Z" class="cls-1"/><path d="M137.11,523.2c-2.77-21.57,2.74-57,8.54-74.37,23.2,5.8,51.57,3.18,65.28-6.84,0,33.75-4.1,48.16-4.1,52.9C191.69,517.81,166.11,525.83,137.11,523.2Z" class="cls-1"/><path d="M150.25,440.12c-.37-19.68,8-50.2,14.91-65.29,20.3,7.5,41.85,8,55.17.37-3.32,30.36-7.87,48.76-8.34,53C197.91,443.53,174.68,444.22,150.25,440.12Z" class="cls-1"/><path d="M169.1,365.76c1.88-19.59,15.57-45.13,24.19-59.33,9.88,9.89,31.82,15.22,45.93,9.13-6.76,29.79-17.45,44-18.4,48.22C205.76,373.82,189.18,373.06,169.1,365.76Z" class="cls-1"/><path d="M198.42,298.58c1.88-19.59,16-37.42,24.64-51.62,10.23,8.62,22.67,11.83,38.07,9.24-6.77,29.78-18.76,43.73-19.71,47.92C226.88,312.74,209.14,307.57,198.42,298.58Z" class="cls-1"/><path d="M229.26,239.57c1.88-19.59,30.93-49.86,44.68-63.45a62.92,62.92,0,0,1,15.11,1.22c-7.27,8.62-13.49,22.21-12.91,43.91-4.94,13.75-12.22,23-12.68,25C249.88,248.36,240,248.56,229.26,239.57Z" class="cls-1"/><path d="M298.55,180.41C263.88,221,310.63,290.54,329,226.81,322.36,192.32,311.33,183.91,298.55,180.41Z" class="cls-1"/><path d="M299.61,170.63C274.05,161.89,221.65,168,190,189c5.94-17.34,2.59-33.67,0-39.07-5.32,29.27-11.93,38.27-17.25,47.85-17.3,11.44-36.19,21-45.5,27.14a63.42,63.42,0,0,1,.8-23.41c-9,9.58-13,23.15-12.24,31.13-11.45,8.25-28.32,17.29-33.38,20.49a79.05,79.05,0,0,0-2.12-10,42.44,42.44,0,0,0-7.36,16.41C64.29,266,12.51,294.89,0,298.35,60.13,157.06,290.56,20.29,299.61,170.63Z" class="cls-1"/><path d="M305.18,153.81c9.07-48.9-60-280.92-300-59.95,26-4.75,42.49-8.59,54.42-11a55.06,55.06,0,0,0,3.55-12.06c1.91,5.72,2.18,8.72,3.14,10.63,5.25-1,29.12-6.68,32.94-7.64,6.2-7.16,10-15.38,12.42-20.71.48,6.21-.49,15-.49,18.33,7.16-1.44,43.44-8.6,58.24-4.78a131.37,131.37,0,0,0,7.32-14.13c.87,5.45.69,13-.12,15.4,12.74,3.13,33,16,41.76,30.51C285.1,86.45,302.26,131.14,305.18,153.81Z" class="cls-1"/><path d="M312.59,157.55c13.8-21.12,88.21-172-34.09-131.79,30.8,6.75,40.48,49,29,78.89C311.35,115.79,315.51,143.31,312.59,157.55Z" class="cls-1"/><path d="M310.39,175.78c27,13.69,30,64.58,29.45,80.9,4.15-1.45,11.63-6.23,14.52-8.3-2.63,9.47-9,17.7-13.69,20.86,1.05,12.1,4.15,38.38,4.21,46.84,5-.07,10.87-2.6,17.5-4.55-3.12,6.24-9,12.68-15.92,14.55,1.58,11.58,5.12,44.89,5.12,50.16,4.73-2.11,8.62-4.65,12.49-5.75-2.11,7.37-8,12.93-11.82,14.55.65,14.08,8.94,62.64,15.79,75.27C435.41,316.61,414.61,64.71,310.39,175.78Z" class="cls-1"/><path d="M323.82,153.48C357.28,82.2,510,120.79,486.11,433.59c-9.12-21.8-24.7-76.73-27.86-84.64,5.53-8.3,5.21-16.58,5.6-21.52-4.15,3.16-7.38,8.47-9.55,10.65-4.16-7.51-23.92-48-26.29-52.38,4.94-6.72,7.11-19.17,8.89-26.09-5.53,5.73-12,12.65-14,17.2-3.36-4.75-5.3-7.67-8.06-11C415.72,210.54,395.56,101.22,323.82,153.48Z" class="cls-1"/><path d="M345.44,103.78C462.54,56.54,508.77,120,498.65,257.67c-4.73-4.05-10.42-10.8-15.82-14.85C440.3,93.4,355.93,108.67,337.14,126.37,341.09,118.19,344.06,107.65,345.44,103.78Z" class="cls-1"/></svg>