<svg xmlns="http://www.w3.org/2000/svg" xmlns:xlink="http://www.w3.org/1999/xlink" id="CoconutPalmTree__x28_filled_x29_" x="0" y="0" version="1.1" viewBox="0 0 577.4 719.8" xml:space="preserve" style="enable-background:new 0 0 577.4 719.8"><style type="text/css">.st0{fill:#f5f5f5}</style><g><path d="M154.7,615.8c-7.9,37.8-12.9,79.8,4.3,96.2c13.4,12.8,68.2,17.1,92.6-45.1c-4.3-16.4-13.4-58.5-10.4-79.8 C219.2,614.5,182.7,619.4,154.7,615.8z" class="st0"/><path d="M158.3,604.2c-3.2-24.9,3.2-65.8,9.9-85.9c26.8,6.7,59.6,3.7,75.4-7.9c0,39-4.7,55.6-4.7,61.1 C221.4,598,191.8,607.2,158.3,604.2z" class="st0"/><path d="M173.5,508.2c-0.4-22.7,9.2-58,17.2-75.4c23.4,8.7,48.3,9.3,63.7,0.4c-3.8,35.1-9.1,56.3-9.6,61.2 C228.6,512.2,201.7,513,173.5,508.2z" class="st0"/><path d="M195.3,422.4c2.2-22.6,18-52.1,27.9-68.5c11.4,11.4,36.8,17.6,53,10.5c-7.8,34.4-20.2,50.8-21.3,55.7 C237.6,431.7,218.5,430.8,195.3,422.4z" class="st0"/><path d="M229.1,344.8c2.2-22.6,18.5-43.2,28.5-59.6c11.8,10,26.2,13.7,44,10.7c-7.8,34.4-21.7,50.5-22.8,55.3 C262,361.2,241.5,355.2,229.1,344.8z" class="st0"/><path d="M264.8,276.7c2.2-22.6,35.7-57.6,51.6-73.3c6.9-0.4,14.8,0.8,17.4,1.4c-8.4,10-15.6,25.7-14.9,50.7 c-5.7,15.9-14.1,26.6-14.6,28.9C288.6,286.8,277.1,287,264.8,276.7z" class="st0"/><path d="M344.8,208.3c-40,46.9,14,127.2,35.2,53.6C372.3,222.1,359.5,212.4,344.8,208.3z" class="st0"/><path d="M346,197c-29.5-10.1-90-3.1-126.6,21.2c6.9-20,3-38.9,0-45.1c-6.1,33.8-13.8,44.2-19.9,55.3 c-20,13.2-41.8,24.3-52.5,31.3c-1.4-8.5-1.1-17.8,0.9-27c-10.4,11.1-15.1,26.7-14.1,36c-13.2,9.5-32.7,20-38.5,23.7 c-0.4-2.3-1.2-7.7-2.4-11.5c-3.7,4.7-7.3,12.5-8.5,18.9c-9.9,7.5-69.7,40.8-84.2,44.8C69.4,181.4,335.5,23.4,346,197z" class="st0"/><path d="M352.4,177.6c10.5-56.5-69.3-324.4-346.4-69.2c30-5.5,49.1-9.9,62.8-12.7c1.7-3.8,3.5-10.1,4.1-13.9 c2.2,6.6,2.5,10.1,3.6,12.3c6.1-1.1,33.6-7.7,38-8.8c7.2-8.3,11.5-17.8,14.4-23.9c0.6,7.2-0.6,17.3-0.6,21.2 c8.3-1.7,50.2-9.9,67.3-5.5c2.8-4.4,6.4-11.6,8.4-16.3c1,6.3,0.8,15-0.1,17.8c14.7,3.6,38.1,18.4,48.2,35.2 C329.2,99.8,349.1,151.4,352.4,177.6z" class="st0"/><path d="M361,181.9c15.9-24.4,101.9-198.6-39.4-152.2c35.6,7.8,46.7,56.5,33.5,91.1C359.5,133.7,364.4,165.5,361,181.9 z" class="st0"/><path d="M358.4,203c31.1,15.8,34.6,74.6,34,93.4c4.8-1.7,13.4-7.2,16.8-9.6c-3,10.9-10.3,20.4-15.8,24.1 c1.2,14,4.8,44.3,4.9,54.1c5.8-0.1,12.6-3,20.2-5.3c-3.6,7.2-10.4,14.6-18.4,16.8c1.8,13.4,5.9,51.8,5.9,57.9 c5.5-2.4,10-5.4,14.4-6.6c-2.4,8.5-9.2,14.9-13.6,16.8c0.8,16.3,10.3,72.3,18.2,86.9C502.8,365.6,478.8,74.7,358.4,203z" class="st0"/><path d="M373.9,177.2c38.6-82.3,215-37.7,187.4,323.5c-10.5-25.2-28.5-88.6-32.2-97.7c6.4-9.6,6-19.1,6.5-24.9 c-4.8,3.7-8.5,9.8-11,12.3c-4.8-8.7-27.6-55.5-30.4-60.5c5.7-7.8,8.2-22.1,10.3-30.1c-6.4,6.6-13.9,14.6-16.2,19.9 c-3.9-5.5-6.1-8.9-9.3-12.7C480.1,243.1,456.8,116.9,373.9,177.2z" class="st0"/><path d="M398.9,119.8c135.2-54.6,188.6,18.7,176.9,177.7c-5.5-4.7-12-12.5-18.3-17.1 C508.5,107.9,411,125.5,389.3,145.9C393.9,136.5,397.3,124.3,398.9,119.8z" class="st0"/></g></svg>